<?xml version="1.0" standalone="no"?>
<!DOCTYPE svg PUBLIC "-//W3C//DTD SVG 20010904//EN"
 "http://www.w3.org/TR/2001/REC-SVG-20010904/DTD/svg10.dtd">
<svg version="1.0" xmlns="http://www.w3.org/2000/svg"
 width="893.000000pt" height="457.000000pt" viewBox="0 0 893.000000 457.000000"
 preserveAspectRatio="xMidYMid meet">

<g transform="translate(0.000000,457.000000) scale(0.100000,-0.100000)"
fill="#000000" stroke="none">
<path d="M3655 4553 c-231 -28 -404 -78 -587 -170 -281 -139 -427 -265 -1008
-868 -222 -229 -387 -392 -423 -417 -103 -70 -252 -133 -562 -238 -545 -184
-664 -246 -772 -397 -78 -110 -121 -245 -168 -528 -21 -133 -27 -153 -64 -214
-58 -96 -63 -134 -59 -489 l3 -307 28 -60 c36 -78 95 -137 171 -172 l61 -28
266 -3 267 -4 22 -61 c90 -248 260 -428 490 -520 88 -34 164 -47 285 -47 334
0 642 219 767 547 l31 83 2037 0 2037 0 31 -83 c103 -268 331 -470 601 -531
101 -23 268 -21 367 4 268 69 470 257 574 535 l26 70 284 6 c340 7 352 9 446
103 85 85 96 120 102 319 2 88 1 189 -3 225 -7 65 -9 69 -67 126 -33 33 -64
70 -69 83 -5 13 -9 122 -9 241 0 290 -17 945 -30 1162 -19 322 -81 802 -135
1055 -46 212 -98 318 -207 419 -77 72 -163 118 -274 146 -76 20 -114 20 -2253
19 -1197 -1 -2189 -4 -2206 -6z"/>
</g>
</svg>
