<?xml version="1.0" standalone="no"?>
<!DOCTYPE svg PUBLIC "-//W3C//DTD SVG 20010904//EN"
 "http://www.w3.org/TR/2001/REC-SVG-20010904/DTD/svg10.dtd">
<svg version="1.0" xmlns="http://www.w3.org/2000/svg"
 width="685.000000pt" height="364.000000pt" viewBox="0 0 685.000000 364.000000"
 preserveAspectRatio="xMidYMid meet">

<g transform="translate(0.000000,364.000000) scale(0.100000,-0.100000)"
fill="#000000" stroke="none">
<path d="M1820 3614 c-14 -2 -90 -8 -170 -14 -490 -38 -872 -112 -1295 -251
-155 -51 -311 -108 -295 -109 3 0 66 9 140 20 211 32 417 58 640 82 177 20
259 23 600 23 359 -1 408 -3 538 -23 309 -48 533 -111 703 -197 120 -61 226
-131 215 -142 -2 -3 -37 7 -78 20 -156 54 -490 121 -738 149 -241 26 -836 13
-980 -22 -19 -4 -79 -16 -132 -25 -54 -9 -98 -21 -98 -26 0 -5 35 -9 78 -9
380 -1 922 -68 1229 -154 177 -49 405 -137 518 -200 141 -79 144 -81 275 -178
76 -57 199 -168 184 -168 -4 0 -41 21 -83 47 -345 215 -705 335 -1121 372 -63
6 -153 10 -200 10 -75 -1 -81 -2 -50 -11 288 -83 658 -234 779 -318 14 -9 64
-42 111 -72 169 -110 369 -302 478 -460 115 -166 223 -391 308 -641 l24 -70
-37 -66 c-20 -36 -46 -84 -59 -106 -138 -248 -171 -308 -196 -355 -15 -30 -38
-71 -50 -90 -11 -19 -48 -82 -82 -140 -77 -133 -195 -255 -308 -318 -102 -58
-236 -103 -325 -109 -52 -4 -73 -10 -73 -19 0 -12 70 -14 403 -14 503 0 583
10 745 90 124 62 209 137 287 254 29 45 116 196 193 336 77 140 154 282 172
315 18 33 36 65 40 70 4 6 26 44 48 85 36 67 341 627 412 755 15 28 39 73 54
100 15 28 40 73 56 100 15 28 41 75 57 105 16 30 83 152 148 270 65 118 127
231 137 250 10 19 29 53 42 75 12 22 62 112 111 200 208 378 285 475 438 550
l72 35 -305 -4 c-268 -3 -316 -6 -395 -25 -110 -26 -249 -95 -327 -163 -90
-78 -117 -119 -348 -538 -53 -96 -111 -202 -130 -235 -18 -33 -86 -156 -151
-273 -64 -117 -119 -210 -122 -205 -6 9 -48 146 -97 313 -16 52 -35 115 -43
140 -9 25 -32 99 -52 165 -130 433 -151 479 -265 596 -64 66 -91 85 -172 124
-116 55 -185 69 -447 90 -170 13 -917 20 -1011 9z"/>
</g>
</svg>
