<?xml version="1.0" standalone="no"?>
<!DOCTYPE svg PUBLIC "-//W3C//DTD SVG 20010904//EN"
 "http://www.w3.org/TR/2001/REC-SVG-20010904/DTD/svg10.dtd">
<svg version="1.0" xmlns="http://www.w3.org/2000/svg"
 width="294.000000pt" height="294.000000pt" viewBox="0 0 294.000000 294.000000"
 preserveAspectRatio="xMidYMid meet">

<g transform="translate(0.000000,294.000000) scale(0.100000,-0.100000)"
fill="#000000" stroke="none">
<path d="M57 2923 c-4 -3 -7 -91 -7 -195 l0 -188 108 0 c178 0 205 -16 265
-153 33 -77 201 -450 264 -587 14 -30 61 -136 106 -235 44 -99 102 -229 129
-290 l50 -110 -4 -187 c-2 -103 -7 -190 -11 -194 -4 -4 -20 4 -35 18 -59 56
-109 73 -212 73 -116 0 -167 -20 -239 -94 -183 -188 -106 -545 146 -679 110
-58 151 -66 323 -66 145 1 161 3 245 31 307 104 488 349 540 733 8 58 15 133
15 167 l0 62 465 3 c514 3 490 0 504 68 7 37 20 46 73 55 24 4 51 20 83 51 40
38 46 49 41 72 -4 15 -9 45 -11 67 -2 28 -11 47 -32 65 -34 30 -97 41 -353 61
l-155 12 -74 56 -75 56 -133 3 c-73 2 -133 6 -133 8 0 4 86 191 181 393 27 57
49 105 49 106 0 3 119 262 166 361 26 54 77 74 188 74 l96 0 0 189 0 189 -31
6 c-45 9 -959 8 -959 -1 0 -12 -39 -314 -45 -350 l-6 -33 91 0 c49 0 90 -2 90
-4 0 -4 -92 -207 -208 -459 -27 -59 -54 -108 -58 -109 -9 0 -253 538 -254 560
0 9 25 12 90 12 l91 0 -6 33 c-3 17 -14 101 -25 185 -11 85 -22 158 -26 163
-6 10 -1297 13 -1307 2z m1192 -93 c13 -7 21 -26 25 -67 4 -32 9 -70 12 -85
l6 -28 -74 0 c-90 0 -118 -15 -118 -64 0 -41 0 -40 197 -476 76 -168 161 -359
173 -387 7 -18 16 -33 19 -33 7 0 72 136 318 666 51 111 93 211 93 222 0 36
-32 63 -80 68 -25 3 -59 7 -76 10 l-30 4 9 78 c5 51 14 81 25 90 12 9 102 12
368 12 194 0 359 -3 368 -6 13 -5 16 -23 16 -89 0 -92 -2 -95 -71 -95 -49 0
-93 -18 -138 -56 -33 -27 -50 -60 -151 -279 -136 -296 -200 -434 -273 -590
-47 -99 -84 -181 -83 -182 2 -2 52 2 112 8 115 11 275 4 309 -13 11 -6 47 -32
80 -58 l60 -47 130 -8 c85 -5 123 -11 110 -16 -14 -6 -1 -8 40 -8 33 1 85 -5
115 -11 30 -7 62 -13 70 -14 30 -4 42 -18 37 -45 -3 -15 1 -33 9 -42 13 -15
11 -21 -20 -53 -43 -46 -106 -62 -106 -27 0 12 -9 39 -20 60 -26 53 -92 80
-150 62 -46 -13 -85 -57 -101 -111 l-12 -40 -339 0 c-292 0 -339 2 -344 15
-10 25 -41 17 -52 -13 -5 -16 -17 -36 -27 -45 -15 -16 2 -17 283 -17 164 0
361 -3 437 -7 l138 -6 -24 32 c-55 74 -13 166 75 166 96 0 136 -106 65 -171
-15 -13 -17 -19 -7 -26 37 -24 -40 -28 -524 -28 l-508 0 0 -24 c0 -35 -18 -42
-22 -9 -2 14 -8 28 -14 30 -8 3 -13 -42 -16 -149 -6 -188 -24 -271 -88 -403
-95 -197 -243 -300 -473 -327 -277 -33 -478 102 -477 321 1 119 72 196 179
196 64 -1 104 -22 127 -66 17 -33 18 -82 3 -110 -24 -45 29 -88 92 -74 49 11
122 90 149 161 41 110 51 187 51 391 l1 193 -263 578 c-144 317 -278 613 -297
657 -56 123 -88 170 -140 203 -56 36 -110 52 -174 52 l-48 0 0 45 0 45 510 0
510 0 0 -22 c0 -13 3 -33 6 -45 6 -21 3 -23 -27 -23 -91 0 -159 -50 -159 -116
0 -20 21 -80 49 -142 27 -59 56 -123 64 -142 8 -19 70 -156 137 -305 67 -148
135 -303 152 -342 17 -40 34 -73 38 -73 4 0 22 33 40 73 48 105 220 476 275
592 119 252 135 293 135 333 0 71 -64 122 -154 122 -22 0 -27 4 -22 16 3 9 6
29 6 45 l0 29 345 0 345 0 0 -45 c0 -43 -1 -45 -30 -45 -52 0 -138 -39 -181
-83 -41 -42 -60 -80 -379 -777 -26 -58 -71 -154 -99 -213 -28 -60 -46 -107
-40 -105 7 2 41 67 77 143 35 77 107 232 159 345 157 338 234 504 246 528 38
78 113 128 212 141 50 6 50 6 53 45 2 22 1 50 -2 63 l-6 23 -354 0 -354 0 -10
-57 c-5 -32 -8 -61 -5 -65 2 -5 21 -8 41 -8 61 -1 118 -32 131 -73 14 -41 1
-75 -159 -417 -50 -107 -129 -279 -177 -382 -47 -104 -89 -188 -92 -188 -4 0
-21 33 -38 73 -17 39 -71 162 -121 272 -274 608 -277 618 -252 665 15 29 48
43 115 49 66 7 65 4 49 99 l-5 32 -519 0 -519 0 -6 -44 c-12 -77 -9 -80 75
-88 84 -8 133 -25 179 -64 35 -29 47 -50 102 -169 20 -44 107 -235 194 -425
204 -448 285 -634 285 -656 0 -26 -27 19 -77 131 -23 50 -59 128 -81 175 -51
110 -73 159 -197 435 -94 209 -140 313 -181 402 -42 92 -110 133 -234 142
l-85 6 -3 84 c-2 61 1 87 10 92 19 12 1045 11 1067 -1z m-166 -1565 c23 -48
27 -67 26 -138 l-1 -82 -12 85 c-6 47 -19 99 -28 115 -22 42 -31 75 -21 75 5
0 21 -25 36 -55z m11 -512 c-27 -127 -71 -216 -123 -250 -38 -26 -78 -30 -105
-10 -14 10 -15 17 -7 40 17 44 13 99 -9 135 -18 29 -19 33 -4 30 9 -2 25 -19
36 -38 15 -28 18 -47 14 -92 -6 -64 1 -70 53 -44 40 21 76 80 106 174 15 45
31 82 36 82 5 0 7 -12 3 -27z m506 4 c0 -31 -43 -183 -67 -239 -55 -123 -166
-242 -278 -297 -96 -48 -235 -78 -235 -51 0 6 10 10 23 10 13 0 48 7 78 16
175 52 293 153 376 324 28 58 59 140 69 183 17 74 34 102 34 54z m-770 -40
c11 -5 9 -6 -4 -4 -11 1 -21 9 -23 17 -3 10 -2 11 4 4 4 -6 15 -14 23 -17z
m-278 -54 c-30 -43 -45 -110 -38 -176 14 -141 103 -242 266 -303 l35 -13 -50
6 c-198 23 -339 268 -257 447 20 44 51 80 61 71 2 -2 -6 -17 -17 -32z m345
-499 c-3 -3 -12 -4 -19 -1 -8 3 -5 6 6 6 11 1 17 -2 13 -5z"/>
<path d="M310 2739 c30 -4 78 -18 105 -30 64 -30 73 -33 55 -20 -8 6 -10 11
-5 11 10 0 38 -28 43 -42 1 -5 4 -8 7 -8 3 0 7 0 10 0 3 0 1 9 -5 19 -7 15 -7
19 4 17 18 -3 48 -27 41 -34 -3 -3 -12 3 -20 14 -8 10 -15 14 -15 8 0 -6 7
-17 15 -24 8 -7 12 -17 9 -24 -3 -6 1 -2 10 8 8 10 13 22 11 26 -15 24 391 20
408 -4 5 -7 7 -3 5 9 -3 22 18 27 42 11 8 -6 12 -6 8 -2 -8 9 8 21 77 56 l40
20 -450 -1 c-274 -1 -428 -5 -395 -10z"/>
<path d="M1854 2742 c2 -4 32 -21 65 -37 34 -16 61 -33 61 -37 0 -5 -6 -6 -12
-2 -10 5 -10 3 0 -7 9 -10 15 -11 20 -3 4 7 45 12 102 13 53 1 97 7 101 13 4
7 9 7 13 -1 4 -6 3 -11 -2 -11 -5 0 -9 -7 -9 -16 0 -12 4 -11 17 6 9 11 23 22
30 24 8 1 26 8 40 16 14 7 50 22 80 31 l55 18 -283 0 c-156 1 -281 -3 -278 -7z"/>
<path d="M850 1885 c0 -10 50 -105 55 -105 2 0 0 11 -5 25 -21 55 -50 101 -50
80z"/>
<path d="M1319 1868 c25 -65 60 -131 54 -103 -3 17 -17 51 -30 78 -24 49 -39
64 -24 25z"/>
<path d="M1838 1848 c-17 -27 -53 -104 -62 -133 -6 -19 -6 -19 9 -1 8 10 12
23 9 27 -3 5 0 9 5 9 6 0 11 5 11 11 0 6 11 33 25 60 25 52 27 64 3 27z"/>
<path d="M1647 1853 c-4 -3 -7 -11 -7 -17 0 -6 5 -5 12 2 6 6 9 14 7 17 -3 3
-9 2 -12 -2z"/>
<path d="M910 1757 c0 -11 30 -67 35 -67 6 0 -16 52 -27 65 -4 5 -8 6 -8 2z"/>
<path d="M1589 1723 c-13 -16 -12 -17 4 -4 9 7 17 15 17 17 0 8 -8 3 -21 -13z"/>
<path d="M1947 1513 c-34 -4 -37 -7 -31 -26 12 -39 10 -43 -4 -9 -14 30 -18
32 -46 27 -106 -22 -149 -47 -140 -82 5 -18 14 -23 40 -23 18 0 56 -9 84 -20
28 -11 55 -18 60 -15 13 8 808 8 820 0 5 -3 10 -2 10 3 0 13 -183 22 -495 24
-210 1 -248 3 -170 9 134 10 215 20 215 28 -1 10 -83 69 -113 80 -27 10 -148
12 -230 4z"/>
<path d="M1576 1460 c-43 -17 -106 -32 -170 -39 -140 -17 -163 -25 -177 -66
-9 -25 -23 -38 -50 -49 l-38 -15 20 -55 c13 -38 19 -82 19 -140 0 -59 4 -87
14 -95 10 -9 15 -8 19 3 4 11 29 13 128 9 67 -2 125 -6 130 -8 4 -3 14 -2 23
1 12 5 13 10 5 27 -9 16 -9 19 4 14 14 -5 27 11 27 31 0 4 -21 8 -47 9 -27 1
-84 9 -128 16 l-80 15 141 1 141 1 -21 45 c-20 44 -41 56 -62 35 -6 -6 -40 -6
-99 1 -68 8 -99 17 -127 36 -34 23 -52 63 -29 63 5 0 14 14 21 31 9 22 18 29
31 26 10 -3 19 -1 21 5 4 12 171 37 253 39 33 1 71 5 85 9 15 5 2 6 -34 3 -72
-7 -69 5 12 47 71 36 58 36 -32 0z m-86 -440 c0 -5 -5 -10 -11 -10 -5 0 -7 5
-4 10 3 6 8 10 11 10 2 0 4 -4 4 -10z"/>
<path d="M1673 1413 c9 -2 25 -2 35 0 9 3 1 5 -18 5 -19 0 -27 -2 -17 -5z"/>
<path d="M1535 1380 c-89 -5 -81 -6 74 -8 96 -1 172 0 170 2 -9 8 -151 12
-244 6z"/>
<path d="M1338 1363 c7 -3 16 -2 19 1 4 3 -2 6 -13 5 -11 0 -14 -3 -6 -6z"/>
<path d="M2550 1250 c-40 -40 -12 -100 45 -100 28 0 37 6 49 28 33 66 -42 124
-94 72z"/>
<path d="M1560 1200 c0 -17 39 -50 60 -50 21 0 60 33 60 50 0 6 -27 10 -60 10
-33 0 -60 -4 -60 -10z"/>
<path d="M1536 860 c-4 -41 -10 -83 -13 -94 -3 -11 -1 -16 5 -12 11 7 27 145
20 168 -3 7 -8 -21 -12 -62z"/>
<path d="M1146 820 c-3 -44 -9 -87 -13 -96 -4 -11 -3 -15 5 -10 6 3 13 25 16
49 14 114 15 137 7 137 -4 0 -11 -36 -15 -80z"/>
<path d="M1514 714 c-4 -10 -9 -22 -11 -26 -2 -5 0 -8 5 -8 10 0 24 41 17 48
-3 3 -8 -4 -11 -14z"/>
</g>
</svg>
